<?xml version="1.0" standalone="no"?>
<!DOCTYPE svg PUBLIC "-//W3C//DTD SVG 20010904//EN"
 "http://www.w3.org/TR/2001/REC-SVG-20010904/DTD/svg10.dtd">
<svg version="1.0" xmlns="http://www.w3.org/2000/svg"
 width="884.000000pt" height="900.000000pt" viewBox="0 0 884.000000 900.000000"
 preserveAspectRatio="xMidYMid meet">

<g transform="translate(0.000000,900.000000) scale(0.100000,-0.100000)"
fill="#000000" stroke="none">
<path d="M1173 8448 c-21 -25 -71 -134 -91 -198 -31 -96 -56 -198 -77 -320
-21 -123 -30 -377 -15 -459 53 -285 126 -452 289 -658 72 -90 235 -243 332
-311 127 -89 307 -174 521 -246 380 -128 788 -135 1129 -21 112 38 139 42 139
21 0 -7 -14 -46 -31 -87 -53 -128 -69 -179 -110 -364 l-41 -180 5 -215 c4
-176 8 -229 25 -290 12 -41 28 -102 37 -135 19 -71 100 -244 146 -312 120
-177 291 -333 479 -435 150 -81 395 -171 554 -204 100 -20 390 -15 531 10 144
26 336 82 430 126 285 131 504 375 639 710 58 144 80 235 91 365 7 77 -8 254
-23 281 -5 10 -26 -10 -67 -62 -137 -175 -333 -318 -527 -384 -193 -65 -300
-73 -458 -34 -165 41 -292 162 -342 327 -38 126 -12 283 78 468 64 130 218
313 349 412 118 89 222 139 375 179 118 31 134 33 285 32 248 -2 406 -42 588
-151 112 -67 320 -272 373 -367 112 -204 156 -459 135 -783 -20 -301 -101
-521 -300 -817 -87 -129 -290 -339 -421 -435 -99 -73 -388 -218 -560 -281
-272 -99 -631 -143 -895 -110 -147 18 -553 115 -694 165 -62 21 -63 19 -6 -13
95 -53 160 -101 232 -174 180 -181 287 -384 342 -648 l11 -55 213 -3 c446 -7
650 37 1080 230 315 143 812 534 1009 797 39 53 84 112 98 131 15 19 47 62 72
95 71 94 169 301 230 490 69 209 94 318 126 555 12 87 -3 469 -22 567 -8 43
-17 101 -21 128 -6 50 -22 115 -69 292 -54 201 -245 569 -388 749 -190 237
-355 403 -509 509 -365 251 -477 308 -814 416 -169 54 -324 75 -630 85 -136 5
-222 3 -267 -5 -66 -11 -124 -19 -336 -46 -63 -8 -153 -24 -200 -35 -48 -11
-154 -35 -237 -54 -82 -19 -197 -45 -255 -56 -58 -11 -168 -36 -245 -55 -537
-130 -974 -128 -1332 4 -127 47 -224 97 -350 180 -95 63 -146 107 -258 222
-167 172 -208 224 -284 364 -43 78 -61 102 -68 93z"/>
<path d="M2158 6082 l-288 -2 0 -233 c0 -127 5 -286 11 -352 14 -160 53 -391
84 -496 14 -46 32 -106 40 -134 58 -210 221 -555 371 -787 100 -155 329 -414
639 -723 332 -331 417 -431 490 -571 68 -132 95 -227 95 -332 0 -212 -34 -403
-108 -613 -135 -381 -279 -630 -494 -854 l-118 -123 31 -6 c82 -16 280 -6 456
24 244 42 292 53 439 105 158 56 260 110 384 201 207 153 355 366 431 619 31
106 33 118 37 317 4 235 -9 355 -60 548 -16 63 -38 151 -48 195 -75 331 -267
602 -533 750 -52 28 -76 49 -97 84 -26 41 -37 49 -107 75 -151 57 -292 138
-443 255 -116 89 -352 312 -441 417 -151 175 -286 388 -360 567 -73 178 -71
164 -69 640 1 372 -1 427 -14 427 -8 0 -20 1 -28 3 -7 1 -142 1 -300 -1z"/>
</g>
</svg>
